<svg width="34" height="34" viewBox="0 0 32 32" fill="white" xmlns="http://www.w3.org/2000/svg">
 <path d="M16.004 3C9.373 3 4 8.373 4 15.004a11.94 11.94 0 0 0 1.787 6.268L4 29l8.01-1.757A11.96 11.96 0 0 0 16.004 27C22.635 27 28 21.627 28 15.004 28 8.373 22.635 3 16.004 3zm6.845 16.787c-.291.817-1.691 1.564-2.383 1.668-.61.092-1.375.132-2.222-.139-.513-.164-1.167-.38-2.01-.744-3.534-1.532-5.834-5.214-6.008-5.46-.174-.246-1.434-1.91-1.434-3.644 0-1.734.906-2.59 1.228-2.945.321-.356.695-.446.927-.446.232 0 .464.003.664.013.211.01.497-.081.779.595.291.696.988 2.408 1.076 2.583.088.174.146.377.029.623-.116.246-.174.377-.349.583-.174.206-.366.461-.522.619-.174.174-.354.363-.15.71.205.347.915 1.506 1.964 2.438 1.35 1.175 2.49 1.538 2.837 1.71.347.174.549.145.754-.086.205-.232.87-1.013 1.102-1.359.232-.347.464-.291.779-.174.316.116 2.004.945 2.35 1.115.347.174.579.26.664.406.084.145.084.84-.207 1.657z"/>
</svg>
